<svg width="133" height="40" viewBox="0 0 133 40" fill="none" xmlns="http://www.w3.org/2000/svg">
<rect width="133" height="40" rx="12" fill="#F6F4FF"/>
<path d="M17.104 26L14.448 21.44H12.688V26H11.232V14.848H14.832C15.6747 14.848 16.384 14.992 16.96 15.28C17.5467 15.568 17.984 15.9573 18.272 16.448C18.56 16.9387 18.704 17.4987 18.704 18.128C18.704 18.896 18.48 19.5733 18.032 20.16C17.5947 20.7467 16.9333 21.136 16.048 21.328L18.848 26H17.104ZM12.688 20.272H14.832C15.6213 20.272 16.2133 20.08 16.608 19.696C17.0027 19.3013 17.2 18.7787 17.2 18.128C17.2 17.4667 17.0027 16.9547 16.608 16.592C16.224 16.2293 15.632 16.048 14.832 16.048H12.688V20.272ZM28.9664 21.28C28.9664 21.5573 28.9504 21.8507 28.9184 22.16H21.9104C21.9637 23.024 22.257 23.7013 22.7904 24.192C23.3344 24.672 23.9904 24.912 24.7584 24.912C25.3877 24.912 25.9104 24.768 26.3264 24.48C26.753 24.1813 27.0517 23.7867 27.2224 23.296H28.7904C28.5557 24.1387 28.0864 24.8267 27.3824 25.36C26.6784 25.8827 25.8037 26.144 24.7584 26.144C23.9264 26.144 23.1797 25.9573 22.5184 25.584C21.8677 25.2107 21.3557 24.6827 20.9824 24C20.609 23.3067 20.4224 22.5067 20.4224 21.6C20.4224 20.6933 20.6037 19.8987 20.9664 19.216C21.329 18.5333 21.8357 18.0107 22.4864 17.648C23.1477 17.2747 23.905 17.088 24.7584 17.088C25.5904 17.088 26.3264 17.2693 26.9664 17.632C27.6064 17.9947 28.097 18.496 28.4384 19.136C28.7904 19.7653 28.9664 20.48 28.9664 21.28ZM27.4624 20.976C27.4624 20.4213 27.3397 19.9467 27.0944 19.552C26.849 19.1467 26.513 18.8427 26.0864 18.64C25.6704 18.4267 25.2064 18.32 24.6944 18.32C23.9584 18.32 23.329 18.5547 22.8064 19.024C22.2944 19.4933 22.001 20.144 21.9264 20.976H27.4624ZM30.3443 21.584C30.3443 20.688 30.5256 19.904 30.8883 19.232C31.2509 18.5493 31.7469 18.0213 32.3763 17.648C33.0163 17.2747 33.7256 17.088 34.5043 17.088C35.2723 17.088 35.9389 17.2533 36.5043 17.584C37.0696 17.9147 37.4909 18.3307 37.7683 18.832V17.232H39.2403V26H37.7683V24.368C37.4803 24.88 37.0483 25.3067 36.4723 25.648C35.9069 25.9787 35.2456 26.144 34.4883 26.144C33.7096 26.144 33.0056 25.952 32.3763 25.568C31.7469 25.184 31.2509 24.6453 30.8883 23.952C30.5256 23.2587 30.3443 22.4693 30.3443 21.584ZM37.7683 21.6C37.7683 20.9387 37.6349 20.3627 37.3683 19.872C37.1016 19.3813 36.7389 19.008 36.2803 18.752C35.8323 18.4853 35.3363 18.352 34.7923 18.352C34.2483 18.352 33.7523 18.48 33.3043 18.736C32.8563 18.992 32.4989 19.3653 32.2323 19.856C31.9656 20.3467 31.8323 20.9227 31.8323 21.584C31.8323 22.256 31.9656 22.8427 32.2323 23.344C32.4989 23.8347 32.8563 24.2133 33.3043 24.48C33.7523 24.736 34.2483 24.864 34.7923 24.864C35.3363 24.864 35.8323 24.736 36.2803 24.48C36.7389 24.2133 37.1016 23.8347 37.3683 23.344C37.6349 22.8427 37.7683 22.2613 37.7683 21.6ZM41.1568 21.584C41.1568 20.688 41.3381 19.904 41.7008 19.232C42.0634 18.5493 42.5594 18.0213 43.1888 17.648C43.8288 17.2747 44.5434 17.088 45.3328 17.088C46.0154 17.088 46.6501 17.248 47.2368 17.568C47.8234 17.8773 48.2714 18.288 48.5808 18.8V14.16H50.0528V26H48.5808V24.352C48.2928 24.8747 47.8661 25.3067 47.3008 25.648C46.7354 25.9787 46.0741 26.144 45.3168 26.144C44.5381 26.144 43.8288 25.952 43.1888 25.568C42.5594 25.184 42.0634 24.6453 41.7008 23.952C41.3381 23.2587 41.1568 22.4693 41.1568 21.584ZM48.5808 21.6C48.5808 20.9387 48.4474 20.3627 48.1808 19.872C47.9141 19.3813 47.5514 19.008 47.0928 18.752C46.6448 18.4853 46.1488 18.352 45.6048 18.352C45.0608 18.352 44.5648 18.48 44.1168 18.736C43.6688 18.992 43.3114 19.3653 43.0448 19.856C42.7781 20.3467 42.6448 20.9227 42.6448 21.584C42.6448 22.256 42.7781 22.8427 43.0448 23.344C43.3114 23.8347 43.6688 24.2133 44.1168 24.48C44.5648 24.736 45.0608 24.864 45.6048 24.864C46.1488 24.864 46.6448 24.736 47.0928 24.48C47.5514 24.2133 47.9141 23.8347 48.1808 23.344C48.4474 22.8427 48.5808 22.2613 48.5808 21.6ZM67.3229 17.072C68.0055 17.072 68.6135 17.216 69.1469 17.504C69.6802 17.7813 70.1015 18.2027 70.4109 18.768C70.7202 19.3333 70.8749 20.0213 70.8749 20.832V26H69.4349V21.04C69.4349 20.1653 69.2162 19.4987 68.7789 19.04C68.3522 18.5707 67.7709 18.336 67.0349 18.336C66.2775 18.336 65.6749 18.5813 65.2269 19.072C64.7789 19.552 64.5549 20.2507 64.5549 21.168V26H63.1149V21.04C63.1149 20.1653 62.8962 19.4987 62.4589 19.04C62.0322 18.5707 61.4509 18.336 60.7149 18.336C59.9575 18.336 59.3549 18.5813 58.9069 19.072C58.4589 19.552 58.2349 20.2507 58.2349 21.168V26H56.7789V17.232H58.2349V18.496C58.5229 18.0373 58.9069 17.6853 59.3869 17.44C59.8775 17.1947 60.4162 17.072 61.0029 17.072C61.7389 17.072 62.3895 17.2373 62.9549 17.568C63.5202 17.8987 63.9415 18.384 64.2189 19.024C64.4642 18.4053 64.8695 17.9253 65.4349 17.584C66.0002 17.2427 66.6295 17.072 67.3229 17.072ZM77.0873 26.144C76.2659 26.144 75.5193 25.9573 74.8473 25.584C74.1859 25.2107 73.6633 24.6827 73.2793 24C72.9059 23.3067 72.7193 22.5067 72.7193 21.6C72.7193 20.704 72.9113 19.9147 73.2953 19.232C73.6899 18.5387 74.2233 18.0107 74.8953 17.648C75.5673 17.2747 76.3193 17.088 77.1513 17.088C77.9833 17.088 78.7353 17.2747 79.4073 17.648C80.0793 18.0107 80.6073 18.5333 80.9913 19.216C81.3859 19.8987 81.5833 20.6933 81.5833 21.6C81.5833 22.5067 81.3806 23.3067 80.9753 24C80.5806 24.6827 80.0419 25.2107 79.3593 25.584C78.6766 25.9573 77.9193 26.144 77.0873 26.144ZM77.0873 24.864C77.6099 24.864 78.1006 24.7413 78.5593 24.496C79.0179 24.2507 79.3859 23.8827 79.6633 23.392C79.9513 22.9013 80.0953 22.304 80.0953 21.6C80.0953 20.896 79.9566 20.2987 79.6793 19.808C79.4019 19.3173 79.0393 18.9547 78.5913 18.72C78.1433 18.4747 77.6579 18.352 77.1353 18.352C76.6019 18.352 76.1113 18.4747 75.6633 18.72C75.2259 18.9547 74.8739 19.3173 74.6073 19.808C74.3406 20.2987 74.2073 20.896 74.2073 21.6C74.2073 22.3147 74.3353 22.9173 74.5913 23.408C74.8579 23.8987 75.2099 24.2667 75.6473 24.512C76.0846 24.7467 76.5646 24.864 77.0873 24.864ZM84.9536 18.656C85.2096 18.1547 85.5723 17.7653 86.0416 17.488C86.5216 17.2107 87.103 17.072 87.7856 17.072V18.576H87.4016C85.7696 18.576 84.9536 19.4613 84.9536 21.232V26H83.4976V17.232H84.9536V18.656ZM97.4664 21.28C97.4664 21.5573 97.4504 21.8507 97.4184 22.16H90.4104C90.4637 23.024 90.757 23.7013 91.2904 24.192C91.8344 24.672 92.4904 24.912 93.2584 24.912C93.8877 24.912 94.4104 24.768 94.8264 24.48C95.253 24.1813 95.5517 23.7867 95.7224 23.296H97.2904C97.0557 24.1387 96.5864 24.8267 95.8824 25.36C95.1784 25.8827 94.3037 26.144 93.2584 26.144C92.4264 26.144 91.6797 25.9573 91.0184 25.584C90.3677 25.2107 89.8557 24.6827 89.4824 24C89.109 23.3067 88.9224 22.5067 88.9224 21.6C88.9224 20.6933 89.1037 19.8987 89.4664 19.216C89.829 18.5333 90.3357 18.0107 90.9864 17.648C91.6477 17.2747 92.405 17.088 93.2584 17.088C94.0904 17.088 94.8264 17.2693 95.4664 17.632C96.1064 17.9947 96.597 18.496 96.9384 19.136C97.2904 19.7653 97.4664 20.48 97.4664 21.28ZM95.9624 20.976C95.9624 20.4213 95.8397 19.9467 95.5944 19.552C95.349 19.1467 95.013 18.8427 94.5864 18.64C94.1704 18.4267 93.7064 18.32 93.1944 18.32C92.4584 18.32 91.829 18.5547 91.3064 19.024C90.7944 19.4933 90.501 20.144 90.4264 20.976H95.9624Z" fill="#7B61FF"/>
<g clip-path="url(#clip0_301_11198)">
<path d="M116.477 19.1666L112.007 14.6966L113.185 13.5183L119.667 20L113.185 26.4816L112.007 25.3033L116.477 20.8333H106.333V19.1666H116.477Z" fill="#7B61FF"/>
</g>
<defs>
<clipPath id="clip0_301_11198">
<rect width="20" height="20" fill="white" transform="translate(103 10)"/>
</clipPath>
</defs>
</svg>
