<svg width="105" height="40" viewBox="0 0 105 40" fill="none" xmlns="http://www.w3.org/2000/svg">
<rect width="105" height="40" rx="12" fill="#F6F4FF"/>
<path d="M20.448 14.848L16.24 26H14.56L10.352 14.848H11.904L15.408 24.464L18.912 14.848H20.448ZM22.7965 15.808C22.5192 15.808 22.2845 15.712 22.0925 15.52C21.9005 15.328 21.8045 15.0933 21.8045 14.816C21.8045 14.5387 21.9005 14.304 22.0925 14.112C22.2845 13.92 22.5192 13.824 22.7965 13.824C23.0632 13.824 23.2872 13.92 23.4685 14.112C23.6605 14.304 23.7565 14.5387 23.7565 14.816C23.7565 15.0933 23.6605 15.328 23.4685 15.52C23.2872 15.712 23.0632 15.808 22.7965 15.808ZM23.5005 17.232V26H22.0445V17.232H23.5005ZM33.982 21.28C33.982 21.5573 33.966 21.8507 33.934 22.16H26.926C26.9793 23.024 27.2727 23.7013 27.806 24.192C28.35 24.672 29.006 24.912 29.774 24.912C30.4033 24.912 30.926 24.768 31.342 24.48C31.7687 24.1813 32.0673 23.7867 32.238 23.296H33.806C33.5713 24.1387 33.102 24.8267 32.398 25.36C31.694 25.8827 30.8193 26.144 29.774 26.144C28.942 26.144 28.1953 25.9573 27.534 25.584C26.8833 25.2107 26.3713 24.6827 25.998 24C25.6247 23.3067 25.438 22.5067 25.438 21.6C25.438 20.6933 25.6193 19.8987 25.982 19.216C26.3447 18.5333 26.8513 18.0107 27.502 17.648C28.1633 17.2747 28.9207 17.088 29.774 17.088C30.606 17.088 31.342 17.2693 31.982 17.632C32.622 17.9947 33.1127 18.496 33.454 19.136C33.806 19.7653 33.982 20.48 33.982 21.28ZM32.478 20.976C32.478 20.4213 32.3553 19.9467 32.11 19.552C31.8647 19.1467 31.5287 18.8427 31.102 18.64C30.686 18.4267 30.222 18.32 29.71 18.32C28.974 18.32 28.3447 18.5547 27.822 19.024C27.31 19.4933 27.0167 20.144 26.942 20.976H32.478ZM47.5839 17.232L44.8479 26H43.3439L41.2319 19.04L39.1199 26H37.6159L34.8639 17.232H36.3519L38.3679 24.592L40.5439 17.232H42.0319L44.1599 24.608L46.1439 17.232H47.5839ZM52.7505 21.584C52.7505 20.688 52.9318 19.904 53.2945 19.232C53.6572 18.5493 54.1532 18.0213 54.7825 17.648C55.4225 17.2747 56.1318 17.088 56.9105 17.088C57.6785 17.088 58.3452 17.2533 58.9105 17.584C59.4758 17.9147 59.8972 18.3307 60.1745 18.832V17.232H61.6465V26H60.1745V24.368C59.8865 24.88 59.4545 25.3067 58.8785 25.648C58.3132 25.9787 57.6518 26.144 56.8945 26.144C56.1158 26.144 55.4118 25.952 54.7825 25.568C54.1532 25.184 53.6572 24.6453 53.2945 23.952C52.9318 23.2587 52.7505 22.4693 52.7505 21.584ZM60.1745 21.6C60.1745 20.9387 60.0412 20.3627 59.7745 19.872C59.5078 19.3813 59.1452 19.008 58.6865 18.752C58.2385 18.4853 57.7425 18.352 57.1985 18.352C56.6545 18.352 56.1585 18.48 55.7105 18.736C55.2625 18.992 54.9052 19.3653 54.6385 19.856C54.3718 20.3467 54.2385 20.9227 54.2385 21.584C54.2385 22.256 54.3718 22.8427 54.6385 23.344C54.9052 23.8347 55.2625 24.2133 55.7105 24.48C56.1585 24.736 56.6545 24.864 57.1985 24.864C57.7425 24.864 58.2385 24.736 58.6865 24.48C59.1452 24.2133 59.5078 23.8347 59.7745 23.344C60.0412 22.8427 60.1745 22.2613 60.1745 21.6ZM65.563 14.16V26H64.107V14.16H65.563ZM69.5005 14.16V26H68.0445V14.16H69.5005Z" fill="#7B61FF"/>
<g clip-path="url(#clip0_2234_690)">
<path d="M88.4767 19.1666L84.0067 14.6966L85.185 13.5183L91.6667 20L85.185 26.4816L84.0067 25.3033L88.4767 20.8333H78.3334V19.1666H88.4767Z" fill="#7B61FF"/>
</g>
<defs>
<clipPath id="clip0_2234_690">
<rect width="20" height="20" fill="white" transform="translate(75 10)"/>
</clipPath>
</defs>
</svg>
